<svg width="570" height="147" viewBox="0 0 570 147" fill="none" xmlns="http://www.w3.org/2000/svg">
<path d="M330.618 53.3886H366.518V43.9851H330.618V53.3886ZM342.713 97.2091H354.511V57.7717H342.713V97.2091ZM320.676 73.3709C319.501 72.1735 318.018 71.042 316.205 69.9764C314.393 68.9109 312.24 67.9002 309.746 66.9335L302.232 64.0004C301.617 63.7587 301.057 63.4731 300.551 63.1216C300.046 62.7701 299.606 62.3746 299.233 61.9132C298.87 61.4518 298.574 60.9465 298.365 60.3972C298.156 59.8479 298.047 59.2438 298.047 58.5737C298.047 57.7058 298.134 56.9149 298.321 56.1788C298.508 55.4538 298.826 54.8167 299.288 54.2674C299.749 53.7181 300.353 53.3007 301.111 52.9931C301.869 52.6855 302.825 52.5317 303.979 52.5317C305.473 52.5317 306.703 52.6965 307.659 53.037C308.614 53.3776 309.361 53.8719 309.9 54.542C310.438 55.2012 310.779 56.0251 310.932 57.0137C311.086 58.0024 311.097 59.1449 310.987 60.4522H322.456C322.61 57.4971 322.269 54.9265 321.423 52.7295C320.577 50.5324 319.347 48.7198 317.732 47.2697C316.106 45.8197 314.151 44.7321 311.855 44.0071C309.559 43.2821 307.044 42.9196 304.308 42.9196C301.88 42.9196 299.584 43.2381 297.42 43.8862C295.256 44.5344 293.356 45.5011 291.741 46.7864C290.115 48.0827 288.83 49.6755 287.885 51.587C286.929 53.4984 286.457 55.7175 286.457 58.2441C286.457 61.0673 287.127 63.5061 288.478 65.5823C289.829 67.6585 291.972 69.2734 294.916 70.4488L306.275 74.9638C307.208 75.3373 308.054 75.7108 308.812 76.0953C309.57 76.4798 310.218 76.9411 310.746 77.4904C311.284 78.0397 311.701 78.7098 311.998 79.5007C312.295 80.2917 312.448 81.2694 312.448 82.4448C312.448 83.5104 312.24 84.4331 311.833 85.1801C311.427 85.9381 310.888 86.5533 310.218 87.0257C309.548 87.4981 308.779 87.8496 307.911 88.0693C307.044 88.289 306.154 88.3989 305.231 88.3989C303.759 88.3989 302.507 88.2341 301.485 87.8935C300.463 87.553 299.65 87.0037 299.024 86.2238C298.409 85.4438 297.97 84.4332 297.717 83.1698C297.464 81.9065 297.365 80.3466 297.409 78.4901H285.853C285.721 81.9395 286.04 84.8945 286.83 87.3662C287.621 89.8379 288.841 91.8702 290.489 93.4521C292.136 95.045 294.191 96.2094 296.662 96.9674C299.134 97.7254 301.99 98.0989 305.231 98.0989C308.087 98.0989 310.669 97.7694 312.987 97.1102C315.305 96.4511 317.293 95.4405 318.952 94.0783C320.61 92.7161 321.885 91.0134 322.786 88.9481C323.686 86.8829 324.137 84.4441 324.137 81.6209C324.137 80.028 323.851 78.545 323.28 77.1718C322.72 75.8536 321.852 74.5683 320.676 73.3709ZM257.445 74.3596H276.526V64.9562H257.445V53.3886H277.801V43.9851H245.756V97.2091H277.91V87.9045H257.445V74.3596ZM213.679 97.2091H225.477V57.7717H213.679V97.2091ZM201.573 53.3886H237.473V43.9851H201.573V53.3886ZM421.687 43.9851V97.2091H433.386V43.9851H421.687ZM496.519 74.3596H515.6V64.9562H496.519V53.3886H516.875V43.9851H484.819V97.2091H516.973V87.9045H496.519V74.3596V74.3596ZM553.302 69.6688L569.253 43.9851H555.796L546.722 59.7601L537.626 43.9851H523.74L539.713 69.8666L523.125 97.2091H536.582L545.986 80.2917L555.587 97.2091H569.78L553.302 69.6688ZM462.179 43.9851V97.2091H473.878V43.9851H462.179ZM385.391 43.9851L369.012 97.2091H381.414L385.391 83.0161H397.903L401.88 97.2091H414.414L398.233 43.9851H385.391ZM387.786 74.3596L391.664 60.6828L395.41 74.3596H387.786Z" fill="white"/>
<path d="M441.932 51.3124V89.8819H453.631V51.3124H441.932Z" fill="#00D496"/>
<path d="M67.1438 72.5009L22.8934 47.5184C21.4328 46.6968 19.2906 47.0072 18.1282 48.2122L4.52015 62.301C-1.58399 68.6181 -1.4927 78.8728 4.71489 85.0865L64.2469 144.619C68.3914 148.763 71.7813 147.357 71.7813 141.496V80.443C71.7813 77.5157 69.6938 73.9433 67.1438 72.5009ZM106.16 39.9902L125.258 29.1512C128.167 27.5019 128.611 24.2095 126.244 21.8421L106.952 2.54985C102.515 -1.88675 98.8817 -0.383542 98.8817 5.891V35.7483C98.8817 40.3553 102.156 42.2602 106.16 39.9902ZM63.7114 2.54985L44.4192 21.8421C42.0517 24.2095 42.496 27.4959 45.4111 29.1512L64.5086 39.9902C68.5131 42.2602 71.7873 40.3553 71.7873 35.7544V5.891C71.7812 -0.383542 68.148 -1.88675 63.7114 2.54985ZM166.143 62.2949L152.535 48.2061C151.372 47.0011 149.23 46.6907 147.77 47.5123L103.519 72.4948C100.969 73.9372 98.8817 77.5096 98.8817 80.4369V141.496C98.8817 147.351 102.271 148.757 106.416 144.619L165.948 85.0865C172.162 78.8728 172.247 68.6181 166.143 62.2949Z" fill="#00D496"/>
</svg>
